<svg width="16" height="15" viewBox="0 0 16 15" fill="none" xmlns="http://www.w3.org/2000/svg">
<path d="M14.9627 5.20688L10.4996 4.55825L8.50447 0.51352C8.44997 0.402777 8.36032 0.313129 8.24958 0.258637C7.97185 0.121528 7.63435 0.235785 7.49548 0.51352L5.50036 4.55825L1.03728 5.20688C0.91423 5.22446 0.80173 5.28246 0.715597 5.37036C0.611467 5.47738 0.554087 5.62137 0.556064 5.77068C0.558042 5.91999 0.619216 6.06241 0.726144 6.16664L3.95525 9.31489L3.19236 13.7604C3.17446 13.8638 3.18591 13.9702 3.22539 14.0674C3.26487 14.1646 3.3308 14.2489 3.41572 14.3105C3.50063 14.3722 3.60113 14.4089 3.70581 14.4163C3.81049 14.4238 3.91517 14.4018 4.00798 14.3528L7.99997 12.2539L11.992 14.3528C12.1009 14.4108 12.2275 14.4301 12.3488 14.409C12.6547 14.3563 12.8603 14.0663 12.8076 13.7604L12.0447 9.31489L15.2738 6.16664C15.3617 6.08051 15.4197 5.96801 15.4373 5.84496C15.4847 5.53735 15.2703 5.25258 14.9627 5.20688Z" fill="#6CB981"/>
</svg>
